<?xml version="1.0" encoding="iso-8859-1"?>
<!-- Generator: Adobe Illustrator 17.0.0, SVG Export Plug-In . SVG Version: 6.00 Build 0)  -->
<!DOCTYPE svg PUBLIC "-//W3C//DTD SVG 1.1//EN" "http://www.w3.org/Graphics/SVG/1.1/DTD/svg11.dtd">
<svg version="1.1" id="Layer_1" xmlns="http://www.w3.org/2000/svg" xmlns:xlink="http://www.w3.org/1999/xlink" x="0px" y="0px"
	 width="26.019px" height="26.02px" viewBox="0 0 26.019 26.02" style="enable-background:new 0 0 26.019 26.02;"
	 xml:space="preserve">
<path style="fill-rule:evenodd;clip-rule:evenodd;fill:#010202;" d="M12.97,8.019c-2.74,0-4.95,2.22-4.95,4.96
	c0,2.75,2.21,5.04,4.95,5.04c2.73,0,5.05-2.29,5.05-5.04C18.019,10.24,15.7,8.019,12.97,8.019z M22.54,15.64
	c-0.23,0.81-0.56,1.57-0.98,2.29l0.06-0.06c0,0,2.19,2.71,0.88,4.02l-0.64,0.64c-1,1-3.49-0.6-4-0.94
	c-0.76,0.42-1.57,0.74-2.43,0.96l0.24,0.01c0,0-0.46,3.46-2.32,3.46h-0.64c-1.48,0-2.27-3.25-2.35-3.57
	c-0.87-0.24-1.69-0.61-2.44-1.08l0.23,0.25c0,0-2.74,2.16-4.05,0.85l-0.58-0.48c-1.05-1.05,0.76-3.89,0.95-4.18
	c-0.38-0.68-0.69-1.39-0.91-2.16C3.23,15.58,0,14.79,0,13.31v-0.64c0-1.69,3.01-2.22,3.55-2.3c0.21-0.77,0.52-1.49,0.9-2.17
	C4.31,7.98,2.39,5.1,3.46,4.04l0.61-0.521c1.2-1.2,3.69,0.61,4.11,0.92c0.68-0.39,1.42-0.71,2.2-0.93C10.52,2.95,11.3,0,12.71,0
	h0.64c1.62,0,2.17,2.76,2.29,3.48c0.79,0.22,1.54,0.54,2.24,0.93c0.47-0.31,3.07-1.96,4.07-0.95l0.58,0.61
	c1.15,1.15-0.49,3.5-0.92,4.07c0.4,0.7,0.73,1.45,0.94,2.25l0.01-0.04c0,0,3.46,0.46,3.46,2.32v0.64
	C26.019,14.69,23.19,15.47,22.54,15.64z"/>
</svg>
