<?xml version="1.0" encoding="utf-8"?>
<!-- Generator: Adobe Illustrator 19.2.1, SVG Export Plug-In . SVG Version: 6.00 Build 0)  -->
<svg version="1.1" id="Layer_1" xmlns="http://www.w3.org/2000/svg" xmlns:xlink="http://www.w3.org/1999/xlink" x="0px" y="0px"
	 viewBox="0 0 186.9 35.6" style="enable-background:new 0 0 186.9 35.6;" xml:space="preserve">
<style type="text/css">
	.st0{fill:#7F0100;}
	.st1{fill:#7F7F7F;}
</style>
<g>
	<g id="XMLID_1_">
		<g>
			<path class="st0" d="M145.9,30.2c2.5-0.1,4.5-2.2,4.4-5c-0.1-2.7-2.2-4.8-5.2-4.6c-2.3,0.2-4.2,2.2-4.2,4.9
				C141,28.3,143.1,30.4,145.9,30.2z M153.4,24.3c-0.1,0.6,0.3,0.7,0.7,0.9c0.4,0.2,0.8,0.4,1.2,0.5c0.5,0.1,0.5,0.4,0.4,0.8
				c-0.1,0.3-0.1,0.7-0.2,1c0,0.1-0.2,0.3-0.3,0.3c-0.7,0.1-1.4,0.2-2.1,0.3c-0.4,0.1-1,1.4-0.8,1.7c0.3,0.5,0.6,1.1,0.9,1.6
				c0.3,0.4-0.1,0.7-0.3,1c-0.3,0.3-0.5,0.5-0.9,0.8c-0.6-0.3-1.2-0.6-1.8-1c-0.3-0.2-0.6-0.3-0.9,0.1c0,0,0,0,0,0
				c-1.3,0.2-1,1.3-1.2,2.1c0,0.2,0,0.4,0,0.6c0,0.1-0.1,0.3-0.2,0.3c-0.5,0.1-1,0.2-1.5,0.2c-0.1,0-0.2-0.1-0.3-0.2
				c-0.3-0.5-0.6-1.1-0.8-1.6c-0.1-0.4-0.3-0.5-0.7-0.5c-0.2,0-0.5-0.1-0.7-0.1c-0.2,0-0.5,0.1-0.6,0.2c-0.4,0.4-0.8,0.9-1.3,1.4
				c-0.1,0.1-0.3,0.1-0.4,0.1c-0.5-0.2-1-0.5-1.5-0.7c0.2-0.8,0.3-1.6,0.5-2.4c0,0,0,0,0,0c0-0.4-1.2-1.2-1.5-1.2
				c-0.6,0.1-1.3,0.3-1.9,0.4c-0.1,0-0.2-0.1-0.3-0.2c-0.2-0.4-0.4-0.8-0.6-1.2c-0.1-0.1,0-0.4,0.1-0.5c0.4-0.5,0.9-0.9,1.4-1.3
				c0.2-0.2,0.4-0.4,0.2-0.7c0,0,0,0,0,0c0.1-0.9-0.4-1.2-1.1-1.5c-0.4-0.2-0.8-0.4-1.3-0.6c0.1-0.5,0.2-1.1,0.3-1.6
				c0-0.1,0.2-0.2,0.3-0.3c0.6-0.1,1.3-0.2,1.9-0.3c0.2,0,0.4-0.2,0.5-0.3c0.2-0.4,0.4-0.8,0.6-1.3c-0.3-0.6-0.7-1.2-1-1.8
				c-0.1-0.2-0.1-0.4,0.1-0.6c0.3-0.3,0.6-0.6,0.9-0.8c0.1-0.1,0.3-0.1,0.5-0.1c0.5,0.2,1,0.5,1.4,0.8c0.3,0.2,0.6,0.2,1,0
				c0.3-0.2,0.6-0.3,0.9-0.4c0.1-0.1,0.2-0.2,0.2-0.3c0.1-0.8,0.2-1.5,0.3-2.4c0.5-0.1,1.1-0.2,1.7-0.3c0.4,0,0.4,0.3,0.5,0.6
				c0.3,0.5,0.5,1,0.7,1.6c0,0.1,0.1,0.1,0.2,0.1c0.4,0.1,0.8,0.2,1.2,0.2c0.1,0,0.2-0.1,0.3-0.2c0.4-0.4,0.9-0.9,1.3-1.3
				c0.2-0.3,0.5-0.3,0.8-0.1c0.2,0.2,0.5,0.3,0.8,0.4c0.5,0.1,0.4,0.5,0.3,0.8c-0.1,0.6-0.2,1.1-0.4,1.7c0,0.1,0,0.3,0.1,0.4
				c0.3,0.3,0.6,0.6,0.9,0.9c0.1,0.1,0.2,0,0.3,0c0.4-0.1,0.7-0.1,1.1-0.2c0.4-0.1,0.7-0.1,1.1-0.2c0.2,0.4,0.5,0.8,0.7,1.3
				c0.1,0.3,0.1,0.5-0.1,0.7c-0.5,0.4-0.9,0.8-1.3,1.2c-0.1,0.1-0.1,0.4-0.1,0.6C153.3,24,153.4,24.1,153.4,24.3z"/>
			<path d="M152.3,10c-0.1,2.5,1.8,5.1,4.9,4.9c2.2-0.1,4.4-1.9,4.4-4.8c0-2.6-1.8-4.7-4.5-4.8C154.5,5.3,152.4,7.3,152.3,10z
				 M166.9,10.7c0.1,0.1,0.2,0.3,0.2,0.5c-0.1,0.5-0.2,0.9-0.3,1.4c-0.8,0.1-1.5,0.2-2.3,0.3c-0.1,0-0.1,0-0.2,0
				c-0.3,0.1-0.8,1.6-0.7,1.9c0.3,0.6,0.6,1.1,0.9,1.7c0.1,0.1,0,0.3-0.1,0.4c-0.3,0.3-0.6,0.7-1,1c-0.1,0.1-0.4,0.1-0.5,0
				c-0.3-0.1-0.7-0.3-1-0.5c-0.3-0.2-0.7-0.4-1-0.5c-0.3,0.1-0.5,0.3-0.8,0.4c-0.6,0.2-0.7,0.6-0.8,1.1c0,0.6-0.1,1.1-0.2,1.7
				c-0.5,0.1-1.1,0.2-1.7,0.3c-0.1,0-0.3-0.1-0.4-0.3c-0.3-0.6-0.5-1.1-0.8-1.7c0-0.1,0-0.2-0.1-0.2c-0.2-0.2-1.6-0.3-1.8-0.1
				c-0.4,0.4-0.8,0.9-1.2,1.4c-0.1,0.2-0.2,0.2-0.4,0.2c-0.1,0-0.2,0-0.3-0.1c-0.4-0.2-0.9-0.5-1.3-0.7c0.1-0.4,0.2-0.8,0.2-1.3
				c0.1-0.3,0.1-0.5,0.2-0.8c0.1-0.3,0.1-0.6-0.2-0.8c-0.2-0.2-0.4-0.4-0.6-0.6c-0.3-0.4-0.7,0-1.1,0c-0.4,0-0.9,0.2-1.3,0.3
				c-0.2,0-0.4-0.1-0.5-0.3c-0.3-0.4-0.4-0.9-0.6-1.3c0.6-0.6,1.1-1.1,1.7-1.7c0.1-0.1,0.1-0.3,0.1-0.4c0-0.3,0-0.6-0.1-0.9
				c0-0.2-0.2-0.4-0.3-0.4c-0.6-0.3-1.2-0.6-1.8-0.8c-0.1,0-0.2-0.2-0.2-0.3c0-0.5,0.1-0.9,0.2-1.4c0-0.2,0.3-0.3,0.5-0.3
				c0.6-0.1,1.2-0.2,1.8-0.2c0.1,0,0.2,0,0.2,0c0.3-0.5,0.5-0.9,0.7-1.4c0.1-0.2-0.1-0.4-0.2-0.6c-0.3-0.6-0.6-1.1-1-1.7
				c0.4-0.4,0.7-0.7,1.1-1.1c0.2-0.2,0.4-0.3,0.7-0.1c0.6,0.3,1.1,0.7,1.7,1c0.1,0,0.3,0,0.4,0c0.4-0.2,0.8-0.4,1.2-0.7
				c0.1-0.7,0.2-1.4,0.3-2.2c0-0.4,0.3-0.4,0.5-0.4c0.4-0.1,0.8-0.2,1.1-0.2c0.1,0,0.4,0.1,0.4,0.3c0.3,0.5,0.5,1.1,0.8,1.7
				c0.1,0.2,0.2,0.4,0.6,0.4c0.2,0,0.4,0.1,0.7,0.1c0.3,0,0.6,0.1,0.8-0.3c0.3-0.5,0.8-0.8,1.2-1.3c0.2-0.2,0.4-0.2,0.6-0.1
				c0.4,0.2,0.8,0.4,1.2,0.7c0.1,0.1,0.2,0.3,0.1,0.4c-0.1,0.7-0.3,1.4-0.4,2c0,0.1-0.1,0.2,0,0.2c0.3,0.3,0.6,0.5,0.8,0.8
				c0.3,0.4,0.7,0.1,1,0.1c0.5,0,0.9-0.2,1.4-0.3c0.1,0,0.4,0.1,0.5,0.2c0.2,0.4,0.4,0.9,0.6,1.3c0,0.1,0,0.3-0.1,0.3
				c-0.5,0.5-0.9,0.9-1.4,1.4c-0.4,0.4-0.1,1.7,0.4,1.9C165.8,10.1,166.4,10.4,166.9,10.7z"/>
			<path class="st1" d="M174.7,20.7c2.7,0,4.8-2.2,4.7-5.1c-0.1-2.6-2.1-4.8-4.9-4.7c-2.5,0.1-4.6,2.2-4.6,5
				C170,18.6,172,20.7,174.7,20.7z M171.2,24.8c-0.2,0.2-0.4,0.4-0.8,0.2c-0.4-0.2-0.8-0.4-1.2-0.6c0.1-0.8,0.3-1.5,0.4-2.2
				c0-0.2-0.1-0.4-0.1-0.5c-0.5-1-1.4-1.1-2.3-0.7c-0.2,0.1-0.4,0.1-0.7,0.1c-0.3,0.1-0.5,0-0.6-0.3c-0.1-0.2-0.2-0.3-0.3-0.5
				c-0.4-0.5-0.3-1,0.3-1.3c0.1-0.1,0.2-0.3,0.3-0.3c0.9-0.5,1-1.2,0.7-2.1c-0.1-0.2-0.2-0.4-0.3-0.4c-0.5-0.3-1.1-0.5-1.6-0.8
				c-0.3-0.1-0.4-0.2-0.3-0.5c0-0.1,0-0.2,0.1-0.4c0.2-1,0.2-1,1.2-1.2c0.3,0,0.7-0.1,1-0.1c0.3,0,0.5-0.1,0.6-0.4
				c0-0.1,0.1-0.3,0.2-0.4c0.4-0.5,0.3-1,0-1.5c-0.2-0.3-0.4-0.7-0.6-1.1c-0.1-0.2-0.2-0.5,0.1-0.7c0.2-0.1,0.4-0.3,0.5-0.5
				c0.3-0.6,0.7-0.4,1.1-0.1c0.1,0,0.2,0.1,0.2,0.1c1.3,0.8,1.5,0.8,2.7,0c0.1-0.1,0.2-0.2,0.2-0.3c0.1-0.6,0.2-1.3,0.3-1.9
				c0-0.1,0.2-0.3,0.3-0.3c0.4-0.1,0.9-0.2,1.3-0.2c0.1,0,0.3,0.1,0.3,0.2c0.3,0.6,0.6,1.2,0.8,1.7c0.1,0.2,0.3,0.3,0.5,0.4
				c0.9,0.3,1.6,0,2.2-0.8c0.1-0.1,0.3-0.2,0.3-0.4c0.3-0.6,0.7-0.5,1.1-0.2c0.2,0.1,0.4,0.2,0.6,0.3c0.1,0.1,0.3,0.4,0.2,0.5
				c-0.1,0.6-0.2,1.2-0.3,1.7c0,0.2,0.1,0.5,0.2,0.7c0,0.1,0.1,0.2,0.2,0.2c0.4,0.5,0.8,0.7,1.5,0.5c0.4-0.2,0.9-0.2,1.4-0.3
				c0.1,0,0.2,0,0.3,0.1c0.2,0.4,0.5,0.9,0.7,1.3c0,0.1-0.1,0.3-0.2,0.4c-0.4,0.5-0.9,0.9-1.3,1.4c-0.1,0.1-0.1,0.4-0.1,0.6
				c-0.1,1.3,1,1.5,1.8,1.9c0.7,0.3,0.7,0.3,0.6,1.1c0,0,0,0.1,0,0.1c-0.1,0.7-0.1,0.8-0.8,0.9c-0.5,0.1-0.9,0.1-1.4,0.2
				c-0.2,0-0.4,0.1-0.4,0.2c-0.3,0.5-0.6,0.9-0.7,1.4c-0.1,0.2,0.2,0.6,0.4,0.9c0.2,0.3,0.4,0.6,0.6,1c0.2,0.3,0.2,0.5-0.1,0.8
				c-0.2,0.2-0.4,0.5-0.7,0.7c-0.2,0.2-0.4,0.2-0.7,0.1c-0.5-0.3-1-0.6-1.6-0.9c-0.1-0.1-0.3,0-0.5,0c-0.1,0-0.2,0.1-0.3,0.1
				c-0.9,0.2-1.1,0.9-1.1,1.7c0,0.4-0.1,0.7-0.1,1.1c0,0.1-0.2,0.3-0.4,0.3c-0.3,0.1-0.6,0-0.8,0.1c-0.5,0.2-0.7-0.1-0.8-0.5
				c-0.2-0.5-0.5-1-0.7-1.5c-0.1-0.2-0.2-0.4-0.5-0.4c-0.3,0-0.6-0.1-1-0.1c-0.1,0-0.3,0-0.4,0.1C172,23.9,171.6,24.4,171.2,24.8z"
				/>
		</g>
		<g>
		</g>
	</g>
</g>
<g>
	<g id="XMLID_2_">
		<g>
			<path d="M129.5,15c0,4.1,0,8.3,0,12.4c0,0.1,0,0.2,0,0.3c-0.4,0-0.8,0-1.2,0c-0.1-1-0.3-2-0.4-3c-0.1,0.1-0.2,0.2-0.3,0.3
				c-0.7,0.9-1.5,1.7-2.5,2.3c-1,0.6-2.2,0.8-3.4,0.8c-1.1,0-2.2-0.1-3.2-0.6c-1.5-0.7-2.4-2-2.6-3.7c-0.1-1.1-0.1-2.1,0.3-3.1
				c0.5-1.3,1.5-2.1,2.7-2.7c1.1-0.5,2.3-0.9,3.5-1c1.5-0.1,3.1-0.2,4.7-0.2c0.3,0,0.6,0,0.8,0c0-0.7,0-1.5,0-2.2
				c-0.1-0.6-0.2-1.3-0.4-1.9c-0.5-1.5-1.6-2.3-3.1-2.5c-2.1-0.3-4,0.3-5.8,1.2c-0.1,0.1-0.2,0.1-0.3,0.2c0,0,0,0-0.1,0
				c-0.2-0.5-0.4-1-0.6-1.5c0.7-0.3,1.3-0.5,2-0.8c1.5-0.5,3.1-0.7,4.7-0.6c1.1,0.1,2.2,0.3,3.1,1c1.1,0.8,1.7,2,1.9,3.3
				C129.5,13.6,129.5,14.3,129.5,15z M127.8,21.1c0.1-1,0.1-2,0.1-3c-0.1,0-0.2,0-0.2,0c-1.3,0.1-2.7,0.1-4,0.2
				c-1.2,0.1-2.4,0.3-3.5,0.7c-1.6,0.6-2.5,1.7-2.6,3.4c-0.1,2,0.9,3.5,2.8,3.9c0.8,0.2,1.7,0.2,2.5,0c1.7-0.2,3.1-1,4.1-2.5
				C127.4,23,127.7,22.1,127.8,21.1z"/>
			<path d="M111.5,15.3c0,4,0,8.1,0,12.1c0,0.1,0,0.2,0,0.3c-0.6,0-1.1,0-1.7,0c0-0.1,0-0.2,0-0.3c0-3.9,0-7.8,0-11.7
				c0-0.8-0.1-1.6-0.3-2.4c-0.4-1.7-1.5-2.7-3.1-3c-1.4-0.2-2.8-0.2-4.2,0.3c-1.6,0.5-2.6,1.7-3.1,3.4c-0.3,1.1-0.4,2.2-0.4,3.3
				c0,3.4,0,6.7,0,10.1c0,0.1,0,0.2,0,0.3c-0.6,0-1.1,0-1.7,0c0-6.3,0-12.5,0-18.8c0.5,0,0.9,0,1.4,0c0.1,0.9,0.2,1.7,0.3,2.6
				c0.1,0,0.1-0.1,0.1-0.1c1-1.6,2.5-2.4,4.2-2.7c1.5-0.3,2.9-0.3,4.4,0.1c2.1,0.6,3.3,2,3.7,4.2C111.4,13.7,111.5,14.5,111.5,15.3z
				"/>
			<path class="st1" d="M94.2,26.7c0,0.7-0.6,1.3-1.3,1.3c-0.7,0-1.3-0.6-1.3-1.3c0-0.7,0.6-1.4,1.3-1.3
				C93.6,25.4,94.2,26,94.2,26.7z"/>
			<path d="M89.2,3c0.3,0.6,0.2,1.1-0.2,1.6c-0.1,0.1-0.2,0.2-0.3,0.3c-0.4,0.5-1,0.6-1.5,0.1C87.1,5,87,5,86.9,4.9
				c-0.5-0.4-0.7-0.9-0.6-1.5c0.1-0.6,0.4-1,0.9-1.2c0.2-0.1,0.4-0.2,0.6-0.2C88.5,2.1,88.9,2.5,89.2,3z"/>
			<path d="M88.7,8.9c0,6.3,0,12.5,0,18.8c-0.5,0-1.1,0-1.6,0c0-6.3,0-12.5,0-18.8C87.6,8.9,88.1,8.9,88.7,8.9z"/>
			<path d="M81.3,15.2c0,4.1,0,8.1,0,12.2c0,0.1,0,0.2,0,0.3c-0.6,0-1.1,0-1.7,0c0-0.1,0-0.2,0-0.3c0-3.9,0-7.9,0-11.8
				c0-0.8-0.1-1.6-0.3-2.4c-0.4-1.6-1.4-2.5-3-2.8c-1.5-0.3-3-0.2-4.4,0.3c-1.7,0.6-2.6,1.9-3.1,3.7c-0.3,1-0.3,2.1-0.3,3.1
				c0,3.3,0,6.6,0,9.9c0,0.1,0,0.2,0,0.3c-0.6,0-1.1,0-1.7,0c0-9,0-17.9,0-26.9c0.6,0,1.1,0,1.6,0c0,3.6,0,7.3,0,10.9
				c0,0,0.1,0.1,0.1,0.1c0-0.1,0-0.2,0.1-0.2c1.1-1.8,2.8-2.7,4.8-3c1.2-0.2,2.5-0.2,3.7,0.1c2.1,0.5,3.4,1.9,3.9,4
				C81.2,13.6,81.3,14.4,81.3,15.2z"/>
			<path d="M62.6,9.3c0.1,0,0.1,0,0.2,0.1c-0.1,0.5-0.3,1-0.5,1.5c-0.4-0.1-0.9-0.3-1.3-0.4c-1.3-0.4-2.6-0.5-4-0.3
				c-2.6,0.3-4.4,1.8-5.2,4.4c-0.8,2.6-0.8,5.3,0.2,7.9c1,2.6,2.8,3.9,5.5,4c1.6,0.1,3.2-0.2,4.8-0.8c0,0,0.1,0,0.1-0.1
				c0,0,0,0,0.1,0c0,0.5,0,0.9,0,1.4c0,0.1-0.1,0.2-0.2,0.2c-0.7,0.3-1.5,0.5-2.3,0.7c-1.5,0.2-3.1,0.2-4.6-0.1
				c-2.7-0.7-4.4-2.5-5.3-5.1c-0.6-1.7-0.7-3.5-0.6-5.3c0.1-1.5,0.4-3,1.1-4.4c1.2-2.4,3.1-3.8,5.6-4.2C58.5,8.3,60.6,8.6,62.6,9.3z
				"/>
			<path d="M45,15.1c0,4.1,0,8.3,0,12.4c0,0.1,0,0.1,0,0.2c-0.4,0-0.8,0-1.2,0c-0.1-1-0.3-1.9-0.4-3c-0.1,0.1-0.2,0.1-0.2,0.2
				c-0.5,0.6-1,1.2-1.6,1.7c-1.2,1.1-2.7,1.4-4.3,1.5c-1,0-2-0.1-2.9-0.5c-1.8-0.7-2.8-2.2-3-4.1c-0.1-1,0-2,0.4-3
				c0.6-1.2,1.6-2,2.7-2.6c1.2-0.6,2.6-0.9,3.9-1c1.5-0.1,3.1-0.1,4.6-0.2c0.1,0,0.3,0,0.5,0c0-1.4,0.1-2.8-0.4-4.1
				c-0.5-1.5-1.6-2.2-3.1-2.4c-1.9-0.2-3.7,0.2-5.4,1c-0.3,0.1-0.5,0.3-0.8,0.4c-0.2-0.5-0.4-1-0.6-1.5c0.1,0,0.1-0.1,0.2-0.1
				c1.9-0.9,3.9-1.4,6-1.4c1.1,0,2.3,0.2,3.3,0.8c1.3,0.7,2,1.9,2.3,3.3C44.9,13.5,45,14.3,45,15.1z M43.1,22.1
				c0.3-1.3,0.2-2.6,0.3-4c-0.1,0-0.2,0-0.3,0c-1,0-2.1,0.1-3.1,0.1c-1.3,0.1-2.7,0.2-4,0.6c-0.8,0.2-1.5,0.6-2.1,1.2
				c-0.8,0.9-1,1.9-0.9,3c0.1,1.7,1.1,2.8,2.7,3.2c0.9,0.2,1.9,0.2,2.8,0C40.9,25.9,42.4,24.5,43.1,22.1z"/>
			<path d="M26.3,2.4c0,8.4,0,16.8,0,25.2c-0.6,0-1.1,0-1.7,0c0-0.1,0-0.2,0-0.3c0-6.4,0-12.8,0-19.3c0-1.1,0.1-2.2,0.2-3.4
				c0-0.1,0-0.2,0-0.3c0,0,0,0-0.1,0c0,0.1-0.1,0.2-0.1,0.2c-1.8,4.6-3.7,9.3-5.5,13.9c-1.2,3-2.4,6-3.5,8.9
				c-0.1,0.2-0.2,0.2-0.3,0.2c-0.2,0-0.4,0-0.6,0c-0.2,0-0.2,0-0.3-0.2c-0.8-2.1-1.6-4.1-2.4-6.2C9.6,15.7,7.4,10.2,5.2,4.6
				c0-0.1-0.1-0.2-0.2-0.3c0.2,7.8,0,15.6,0.1,23.4c-0.6,0-1.1,0-1.7,0c0-8.4,0-16.8,0-25.2c0,0,0.1,0,0.1,0c0.8,0,1.6,0,2.4,0
				c0.1,0,0.2,0.1,0.2,0.2c1.2,3.2,2.5,6.3,3.7,9.5c1.6,4.1,3.2,8.2,4.8,12.3c0,0.1,0.1,0.2,0.1,0.3c0.1-0.1,0.1-0.2,0.1-0.3
				c2.3-6,4.7-12,7-17.9c0.5-1.3,1-2.6,1.5-3.9c0.1-0.2,0.1-0.2,0.3-0.2c0.7,0,1.4,0,2.1,0C26.1,2.4,26.2,2.4,26.3,2.4z"/>
		</g>
		<g>
		</g>
	</g>
</g>
</svg>
