<?xml version="1.0" encoding="utf-8"?>
<!-- Generator: Adobe Illustrator 19.2.1, SVG Export Plug-In . SVG Version: 6.00 Build 0)  -->
<svg version="1.1" id="Layer_1" xmlns="http://www.w3.org/2000/svg" xmlns:xlink="http://www.w3.org/1999/xlink" x="0px" y="0px"
	 viewBox="0 0 186.4 48.1" style="enable-background:new 0 0 186.4 48.1;" xml:space="preserve">
<style type="text/css">
	.st0{fill:#444444;}
	.st1{font-family:'Monaco';}
	.st2{font-size:16.6732px;}
	.st3{fill:#FFFFFF;}
	.st4{fill:#7F7F7F;}
	.st5{fill:#7F0100;}
	.st6{font-size:18.7573px;}
</style>
<g>
	<text transform="matrix(1 0 0 1 89.749 35.8647)" class="st0 st1 st2">.</text>
	<g>
		<g id="XMLID_2_">
			<g>
				<path class="st3" d="M131.4,23.5c0,4,0,8.1,0,12.1c0,0.1,0,0.2,0,0.3c-0.4,0-0.8,0-1.2,0c-0.1-1-0.3-1.9-0.4-3
					c-0.1,0.1-0.2,0.2-0.3,0.3c-0.5,0.7-1.2,1.3-1.9,1.8c-1,0.7-2.1,1.1-3.3,1.2c-1.2,0.1-2.5,0.1-3.7-0.4c-1.7-0.7-2.7-2-2.9-3.8
					c-0.1-1.1-0.1-2.1,0.4-3.1c0.6-1.3,1.6-2,2.9-2.6c1.2-0.5,2.5-0.8,3.9-0.9c1.6-0.1,3.2-0.1,4.7-0.2c0.1,0,0.1,0,0.2,0
					c0,0,0,0,0,0c0-1.1,0.1-2.3-0.2-3.4c-0.5-2.1-1.9-3-3.9-3c-1.9-0.1-3.6,0.4-5.2,1.2c-0.1,0.1-0.2,0.1-0.4,0.2
					c-0.2-0.5-0.4-1-0.6-1.4c0.1,0,0.1-0.1,0.2-0.1c1.8-0.8,3.7-1.3,5.7-1.3c0.9,0,1.7,0.1,2.5,0.3c1.8,0.6,2.9,1.8,3.2,3.6
					C131.3,22,131.4,22.8,131.4,23.5z M129.4,30.9c0.5-1.4,0.4-2.8,0.4-4.3c-1,0-2,0.1-3,0.1c-1.4,0.1-2.9,0.2-4.3,0.6
					c-2,0.6-2.9,1.6-3,3.5c-0.1,2,0.9,3.3,2.8,3.7c1,0.2,1.9,0.2,2.9,0C127.2,34.2,128.7,33,129.4,30.9z"/>
				<path class="st3" d="M113.4,23.8c0,3.9,0,7.9,0,11.8c0,0.1,0,0.1,0,0.2c-0.6,0-1.1,0-1.7,0c0-0.1,0-0.2,0-0.3
					c0-3.8,0-7.6,0-11.5c0-0.7-0.1-1.5-0.2-2.2c-0.4-1.7-1.4-2.8-3.2-3.1c-1.4-0.2-2.7-0.1-4.1,0.3c-1.7,0.5-2.7,1.8-3.2,3.5
					c-0.3,1-0.4,2-0.4,3.1c0,3.3,0,6.6,0,9.9c0,0.1,0,0.2,0,0.3c-0.6,0-1.1,0-1.7,0c0-6.1,0-12.2,0-18.3c0.5,0,0.9,0,1.4,0
					c0.1,0.8,0.2,1.7,0.3,2.5c0.1-0.1,0.1-0.1,0.1-0.1c0.9-1.4,2.3-2.2,3.9-2.5c1.5-0.3,3.1-0.4,4.6,0c2.1,0.5,3.3,2,3.8,4.1
					C113.3,22.3,113.4,23.1,113.4,23.8z"/>
				<path class="st3" d="M90.6,17.6c0,6.1,0,12.2,0,18.3c-0.6,0-1.1,0-1.6,0c0-6.1,0-12.2,0-18.3C89.5,17.6,90,17.6,90.6,17.6z"/>
				<path class="st3" d="M83.2,23.8c0,3.9,0,7.8,0,11.7c0,0.1,0,0.2,0,0.3c-0.6,0-1.1,0-1.7,0c0-0.1,0-0.2,0-0.3c0-3.9,0-7.7,0-11.6
					c0-0.7-0.1-1.4-0.2-2c-0.4-1.8-1.5-2.9-3.3-3.1c-1.4-0.2-2.7-0.1-4,0.3c-1.7,0.6-2.7,1.8-3.2,3.5c-0.3,1.1-0.4,2.1-0.4,3.2
					c0,3.2,0,6.5,0,9.7c0,0.1,0,0.2,0,0.3c-0.6,0-1.1,0-1.7,0c0-8.7,0-17.5,0-26.2c0.6,0,1.1,0,1.6,0c0,3.6,0,7.1,0,10.7
					c0.1-0.1,0.1-0.2,0.2-0.2c1.1-1.7,2.7-2.6,4.8-2.9c1.2-0.2,2.4-0.2,3.6,0.1c2.3,0.5,3.6,1.9,4.1,4.1
					C83.1,22.3,83.2,23.1,83.2,23.8z"/>
				<path class="st3" d="M64.5,18c0.1,0,0.1,0,0.2,0.1c-0.2,0.5-0.3,1-0.5,1.5c-0.8-0.2-1.5-0.4-2.2-0.6c-1.5-0.3-2.9-0.3-4.3,0.1
					c-1.9,0.6-3.2,1.9-3.8,3.8c-0.5,1.5-0.6,3.1-0.6,4.7c0.1,1.2,0.3,2.4,0.8,3.5c1,2.2,2.7,3.4,5.1,3.6c1.7,0.1,3.4-0.1,5-0.7
					c0.1,0,0.2-0.1,0.3-0.1c0,0.5,0,1,0,1.5c0,0.1-0.1,0.1-0.2,0.2c-0.8,0.4-1.7,0.6-2.6,0.7c-1.3,0.1-2.6,0.2-3.8-0.1
					C55,35.5,53,33.7,52.1,31c-1-2.9-0.9-5.9,0.2-8.8c1.1-2.8,3.3-4.4,6.3-4.8C60.6,17.1,62.6,17.3,64.5,18z"/>
				<path class="st3" d="M46.8,23.7c0,4,0,8,0,12c0,0.1,0,0.2,0,0.3c-0.4,0-0.8,0-1.2,0c-0.1-1-0.3-1.9-0.4-3
					c-0.1,0.1-0.2,0.2-0.3,0.2c-0.6,0.6-1.1,1.1-1.7,1.6c-1,0.8-2.1,1.2-3.4,1.3c-1.3,0.1-2.5,0.1-3.7-0.3c-1.9-0.7-2.9-2.1-3.1-4.1
					c-0.1-0.7-0.1-1.4,0.1-2.1c0.3-1.3,1.1-2.2,2.3-2.9c1.1-0.7,2.3-1,3.6-1.2c1.3-0.2,2.5-0.2,3.8-0.3c0.8,0,1.6,0,2.4-0.1
					c0-0.6,0-1.2,0-1.7c0-0.8-0.1-1.6-0.4-2.3c-0.5-1.5-1.6-2.2-3.1-2.4c-2-0.2-3.9,0.3-5.7,1.1c-0.2,0.1-0.3,0.1-0.5,0.2
					c-0.2-0.5-0.4-1-0.6-1.4c0.1,0,0.1-0.1,0.2-0.1c1.8-0.8,3.7-1.3,5.8-1.3c0.9,0,1.8,0.1,2.6,0.4c1.8,0.6,2.8,1.9,3.1,3.7
					C46.8,22.1,46.8,22.9,46.8,23.7z M44.7,31.1c0.6-1.4,0.4-3,0.4-4.5c-1.4,0.1-2.7,0.1-4.1,0.2c-0.4,0-0.7,0.1-1.1,0.1
					c-1.1,0.1-2.2,0.3-3.1,0.8c-0.9,0.4-1.6,1.1-1.9,2.1c-0.1,0.5-0.2,1.1-0.2,1.6c0.1,1.6,1,2.7,2.5,3.1c1,0.3,2,0.2,3.1,0
					C42.5,34.2,44,33.1,44.7,31.1z"/>
				<path class="st3" d="M28.1,11.3c0,8.2,0,16.4,0,24.6c-0.6,0-1.1,0-1.7,0c0-0.1,0-0.2,0-0.3c0-6.3,0-12.5,0-18.8
					c0-1.1,0.1-2.2,0.2-3.3c0-0.1,0-0.2,0-0.3c0,0,0,0-0.1,0c0,0.1-0.1,0.1-0.1,0.2c-2.5,6.3-5.1,12.5-7.6,18.8
					c-0.5,1.2-1,2.4-1.5,3.6c-0.1,0.1-0.1,0.2-0.3,0.2c-0.3,0-0.6,0.1-0.9,0c-0.2-0.1-0.2-0.5-0.4-0.7c-2.9-7.3-5.9-14.5-8.8-21.8
					c0-0.1-0.1-0.1-0.1-0.2c0.2,7.6,0,15.2,0.1,22.7c-0.6,0-1.1,0-1.7,0c0-8.2,0-16.4,0-24.6c0.1,0,0.3,0,0.4,0c0.7,0,1.4,0,2,0
					c0.2,0,0.3,0,0.3,0.2C10,16.3,12,21.2,13.9,26c0.9,2.2,1.8,4.5,2.7,6.7c0,0.1,0.1,0.1,0.1,0.3c0.1-0.1,0.1-0.2,0.1-0.3
					c1.9-4.6,3.7-9.2,5.6-13.9c1-2.4,1.9-4.8,2.9-7.3c0.1-0.3,0.2-0.4,0.5-0.3C26.6,11.3,27.4,11.3,28.1,11.3z"/>
			</g>
			<g>
			</g>
		</g>
	</g>
	<g>
		<g id="XMLID_1_">
			<g>
				<path class="st4" d="M186.3,24.7c0.4,0.2,0.5,0.2,0.4,0.6c-0.1,0.3-0.1,0.7-0.2,1c0,0.1-0.2,0.2-0.2,0.2
					c-0.5,0.1-1.1,0.2-1.6,0.2c-0.5-0.1-0.8,0.2-0.9,0.6c-0.1,0.3-0.2,0.5-0.4,0.7c-0.1,0.2-0.1,0.3,0,0.4c0.3,0.6,0.7,1.2,1,1.8
					c0,0.1,0,0.2,0,0.3c-0.3,0.4-0.7,0.7-1.1,1c0,0-0.2,0-0.2,0c-0.6-0.3-1.2-0.6-1.8-1c-0.2-0.1-0.3-0.1-0.5,0
					c-0.3,0.2-0.6,0.3-0.9,0.4c-0.4,0.1-0.4,0.4-0.4,0.7c-0.1,0.6-0.1,1.2-0.2,1.8c0,0.1-0.1,0.2-0.2,0.2c-0.5,0.1-1,0.2-1.5,0.2
					c-0.1,0-0.2-0.1-0.2-0.1c-0.3-0.6-0.6-1.3-0.9-1.9c-0.1-0.1-0.2-0.2-0.3-0.2c-0.4-0.1-0.8-0.2-1.2-0.2c-0.1,0-0.3,0-0.3,0.1
					c-0.5,0.5-0.9,0.9-1.3,1.4c-0.2,0.2-0.3,0.3-0.6,0.1c-0.3-0.2-0.7-0.4-1-0.5c-0.2-0.1-0.2-0.3-0.2-0.5c0.1-0.6,0.3-1.3,0.4-1.9
					c0-0.2,0-0.3-0.1-0.4c-0.3-0.2-0.5-0.5-0.7-0.7c-0.2-0.2-0.3-0.3-0.6-0.2c-0.6,0.1-1.3,0.2-1.9,0.4c-0.2,0-0.3,0-0.4-0.2
					c-0.2-0.4-0.4-0.8-0.6-1.2c0-0.1,0-0.2,0.1-0.2c0.5-0.5,1-1,1.5-1.4c0.1-0.1,0.2-0.3,0.1-0.4c-0.1-0.4-0.1-0.7-0.2-1.1
					c0-0.1-0.1-0.2-0.2-0.3c-0.6-0.3-1.1-0.5-1.7-0.8c-0.4-0.2-0.4-0.2-0.3-0.6c0.1-0.3,0.1-0.7,0.2-1c0-0.2,0.2-0.3,0.4-0.3
					c0.6-0.1,1.2-0.2,1.8-0.2c0.3,0,0.5-0.1,0.6-0.4c0.1-0.3,0.3-0.6,0.5-0.9c0.1-0.2,0.1-0.4,0-0.6c-0.3-0.6-0.7-1.2-1-1.7
					c0-0.1,0-0.2,0-0.3c0.3-0.3,0.7-0.6,1-1c0.2-0.2,0.3-0.1,0.5,0c0.6,0.3,1.2,0.6,1.8,0.9c0.1,0.1,0.3,0.1,0.4,0
					c0.4-0.2,0.8-0.4,1.1-0.6c0.1,0,0.2-0.2,0.2-0.2c0.1-0.7,0.2-1.4,0.3-2c0-0.2,0.1-0.3,0.3-0.3c0.4,0,0.9-0.1,1.3-0.2
					c0.2,0,0.3,0,0.3,0.2c0.3,0.6,0.6,1.2,0.9,1.8c0,0.1,0.1,0.2,0.2,0.2c0.4,0.1,0.9,0.2,1.3,0.2c0.1,0,0.2,0,0.3-0.1
					c0.5-0.5,1-1,1.4-1.4c0.1-0.1,0.3-0.2,0.4-0.1c0.4,0.2,0.8,0.4,1.2,0.6c0.1,0.1,0.2,0.2,0.1,0.3c-0.1,0.6-0.3,1.3-0.4,1.9
					c0,0.2,0,0.4,0.2,0.6c0.3,0.2,0.5,0.5,0.8,0.7c0.1,0.1,0.3,0.1,0.4,0.1c0.7-0.1,1.3-0.2,2-0.4c0.2,0,0.3,0,0.4,0.2
					c0.2,0.4,0.4,0.7,0.6,1.1c0.1,0.2,0,0.3-0.2,0.5c-0.5,0.5-1,0.9-1.5,1.4c-0.1,0.1-0.1,0.2-0.1,0.3c0,0.4,0.1,0.7,0.2,1.1
					c0,0.1,0.1,0.2,0.2,0.3C185.1,24.2,185.7,24.5,186.3,24.7z M181.3,24.3c0-2.2-1.5-4.6-4.7-4.7c-2.3-0.1-4.6,1.6-4.8,4.5
					c-0.2,2.4,1.6,4.8,4.6,5C178.7,29.1,181.3,27.4,181.3,24.3z"/>
				<path class="st3" d="M168.8,19.3c0.2,0.1,0.2,0.2,0.2,0.4c-0.1,0.4-0.1,0.9-0.2,1.3c0,0.1-0.1,0.2-0.3,0.2
					c-0.7,0.1-1.4,0.2-2.1,0.3c-0.2,0-0.2,0.1-0.3,0.2c-0.2,0.4-0.3,0.7-0.5,1c-0.1,0.1-0.1,0.2,0,0.4c0.4,0.6,0.7,1.3,1,1.9
					c0,0.1,0,0.2,0,0.2c-0.4,0.4-0.8,0.8-1.2,1.2c0,0-0.2,0-0.2,0c-0.6-0.3-1.2-0.6-1.7-0.9c-0.2-0.1-0.4-0.2-0.7,0
					c-0.3,0.2-0.6,0.3-0.9,0.5c-0.1,0-0.2,0.2-0.2,0.3c-0.1,0.7-0.2,1.4-0.3,2.1c0,0.1-0.1,0.2-0.2,0.2c-0.5,0.1-1.1,0.2-1.6,0.2
					c-0.1,0-0.2-0.1-0.2-0.2c-0.3-0.6-0.6-1.3-0.9-1.9c0-0.1-0.1-0.1-0.2-0.2c-0.4-0.1-0.8-0.2-1.2-0.2c-0.1,0-0.3,0.1-0.3,0.1
					c-0.5,0.5-1,1-1.5,1.5c-0.1,0.1-0.2,0.1-0.3,0.1c-0.5-0.2-0.9-0.5-1.4-0.7c-0.1,0-0.1-0.1-0.1-0.2c0.1-0.7,0.3-1.4,0.4-2.1
					c0-0.2,0-0.3-0.1-0.4c-0.3-0.3-0.5-0.5-0.8-0.8c-0.1-0.1-0.2-0.1-0.3-0.1c-0.7,0.1-1.4,0.3-2.1,0.4c-0.1,0-0.2-0.1-0.3-0.1
					c-0.2-0.4-0.4-0.9-0.7-1.3c-0.1-0.2,0-0.3,0.1-0.4c0.5-0.5,1-0.9,1.5-1.4c0.1-0.1,0.1-0.2,0.1-0.3c0-0.4-0.1-0.7-0.2-1.1
					c0-0.2-0.1-0.2-0.2-0.3c-0.6-0.3-1.3-0.6-1.9-0.9c-0.1-0.1-0.2-0.1-0.1-0.2c0.1-0.5,0.2-1,0.2-1.4c0-0.2,0.1-0.2,0.3-0.2
					c0.7-0.1,1.4-0.2,2.1-0.3c0.1,0,0.2-0.1,0.2-0.2c0.2-0.4,0.4-0.7,0.6-1.1c0.1-0.1,0.1-0.2,0-0.4c-0.4-0.6-0.7-1.2-1-1.8
					c0-0.1,0-0.2,0-0.3c0.4-0.4,0.7-0.7,1.1-1.1c0.1-0.1,0.2-0.1,0.3,0c0.6,0.3,1.3,0.6,1.9,1c0.1,0.1,0.2,0.1,0.4,0
					c0.4-0.2,0.7-0.3,1-0.5c0.2-0.1,0.2-0.2,0.3-0.3c0.1-0.7,0.2-1.4,0.3-2c0-0.2,0.1-0.2,0.2-0.2c0.5-0.1,1-0.2,1.5-0.2
					c0.2,0,0.3,0.1,0.4,0.3c0.3,0.6,0.5,1.1,0.8,1.7c0.1,0.3,0.3,0.4,0.6,0.4c0.3,0,0.6,0.1,1,0.1c0.1,0,0.2,0,0.3-0.1
					c0.5-0.5,1-1,1.5-1.5c0.1-0.1,0.2-0.1,0.3-0.1c0.4,0.2,0.8,0.4,1.3,0.6c0.2,0.1,0.2,0.2,0.2,0.4c-0.1,0.7-0.3,1.3-0.4,2
					c0,0.1,0,0.3,0.1,0.3c0.2,0.2,0.5,0.5,0.7,0.7c0.1,0.1,0.3,0.2,0.5,0.2c0.7-0.1,1.4-0.3,2-0.4c0.2,0,0.2,0,0.3,0.1
					c0.2,0.4,0.4,0.8,0.7,1.3c0.1,0.2,0.1,0.3-0.1,0.4c-0.5,0.4-1,0.9-1.5,1.4c-0.2,0.1-0.2,0.3-0.1,0.4c0.1,0.3,0.1,0.6,0.2,0.9
					c0,0.2,0.1,0.3,0.2,0.3C167.5,18.7,168.2,19,168.8,19.3z M158.8,23.5c2.7,0,4.7-2.1,4.7-4.7c0-2.8-2.3-4.8-4.9-4.7
					c-2.5,0.1-4.8,2.3-4.5,5.2C154.4,21.6,156.3,23.5,158.8,23.5z"/>
				<path class="st5" d="M157.4,34.2c0.2,0.1,0.2,0.2,0.2,0.3c-0.1,0.5-0.2,0.9-0.3,1.4c0,0.1-0.1,0.2-0.2,0.2
					c-0.7,0.1-1.4,0.2-2,0.3c-0.2,0-0.3,0.1-0.4,0.3c-0.1,0.3-0.3,0.6-0.5,1c0,0.1-0.1,0.3,0,0.4c0.3,0.6,0.6,1.2,1,1.8
					c0.1,0.2,0.1,0.3,0,0.5c-0.3,0.3-0.7,0.6-1,1c-0.1,0.1-0.2,0.1-0.4,0c-0.6-0.3-1.2-0.6-1.8-1c-0.2-0.1-0.3-0.1-0.5,0
					c-0.3,0.2-0.6,0.3-0.9,0.5c-0.1,0.1-0.3,0.1-0.3,0.3c-0.1,0.7-0.2,1.3-0.3,2c0,0.1,0,0.3-0.2,0.3c-0.5,0.1-1.1,0.2-1.6,0.2
					c-0.1,0-0.2-0.1-0.3-0.2c-0.3-0.6-0.6-1.3-0.9-1.9c0-0.1-0.2-0.2-0.3-0.2c-0.4-0.1-0.8-0.1-1.2-0.2c-0.1,0-0.2,0-0.3,0.1
					c-0.5,0.5-1,1-1.5,1.5c-0.1,0.1-0.2,0.2-0.4,0.1c-0.4-0.2-0.9-0.4-1.3-0.7c-0.1-0.1-0.2-0.1-0.1-0.3c0.1-0.7,0.3-1.4,0.4-2
					c0-0.2,0-0.2-0.1-0.4c-0.3-0.2-0.5-0.5-0.8-0.8c-0.1-0.1-0.2-0.2-0.4-0.1c-0.7,0.1-1.4,0.3-2.1,0.4c-0.2,0-0.3,0-0.3-0.2
					c-0.3-0.5-0.5-1-0.8-1.5c0.6-0.5,1.1-1,1.7-1.5c0.2-0.1,0.2-0.3,0.2-0.5c-0.1-0.3-0.1-0.6-0.2-1c0-0.2-0.1-0.2-0.2-0.3
					c-0.6-0.3-1.3-0.6-1.9-0.9c-0.1,0-0.1-0.2-0.1-0.2c0.1-0.5,0.1-1,0.2-1.4c0-0.1,0.1-0.2,0.2-0.2c0.7-0.1,1.4-0.2,2.1-0.3
					c0.1,0,0.2-0.1,0.3-0.2c0.2-0.3,0.4-0.7,0.6-1c0.1-0.1,0.1-0.2,0-0.4c-0.4-0.6-0.7-1.2-1-1.8c0-0.1,0-0.2,0-0.3
					c0.4-0.4,0.8-0.8,1.2-1.2c0.7,0.4,1.4,0.7,2.1,1.1c0.1,0.1,0.2,0.1,0.4,0c0.3-0.2,0.7-0.4,1.1-0.5c0.2-0.1,0.2-0.1,0.2-0.3
					c0.1-0.6,0.2-1.3,0.2-1.9c0-0.4,0-0.4,0.4-0.5c0.5-0.1,0.9-0.1,1.4-0.2c0.1,0,0.2,0,0.3,0.2c0.3,0.6,0.6,1.2,0.9,1.8
					c0.1,0.2,0.2,0.3,0.4,0.3c0.4,0,0.7,0.1,1.1,0.1c0.1,0,0.3,0,0.3-0.1c0.5-0.5,0.9-1,1.4-1.4c0.2-0.2,0.3-0.2,0.5-0.1
					c0.4,0.2,0.8,0.4,1.2,0.6c0.2,0.1,0.3,0.2,0.2,0.4c-0.2,0.6-0.3,1.3-0.4,1.9c0,0.2,0,0.3,0.2,0.5c0.2,0.2,0.5,0.4,0.7,0.7
					c0.1,0.1,0.3,0.2,0.5,0.1c0.7-0.1,1.4-0.2,2-0.4c0.1,0,0.2,0,0.3,0.1c0.2,0.4,0.4,0.8,0.7,1.3c0.1,0.1,0.1,0.2-0.1,0.4
					c-0.5,0.4-1,0.9-1.5,1.4c-0.2,0.2-0.2,0.3-0.2,0.5c0.1,0.3,0.1,0.6,0.2,1c0,0.1,0.1,0.2,0.2,0.3c0.4,0.2,0.9,0.4,1.3,0.6
					C157,34,157.2,34.1,157.4,34.2z M152.1,33.7c0-2.5-2-4.9-5-4.7c-2.1,0.1-4.5,1.8-4.4,4.9c0.1,2.2,1.9,4.5,4.8,4.4
					C150,38.3,152.1,36.4,152.1,33.7z"/>
			</g>
			<g>
			</g>
		</g>
	</g>
	<text transform="matrix(1 0 0 1 84.1001 12.3051)" class="st3 st1 st6">.</text>
</g>
</svg>
