<?xml version="1.0" encoding="utf-8"?>
<!-- Generator: Adobe Illustrator 20.0.0, SVG Export Plug-In . SVG Version: 6.00 Build 0)  -->
<svg version="1.1" id="Layer_1" xmlns="http://www.w3.org/2000/svg" xmlns:xlink="http://www.w3.org/1999/xlink" x="0px" y="0px"
	 viewBox="0 0 25 24" style="enable-background:new 0 0 25 24;" xml:space="preserve">
<style type="text/css">
	.st0{fill:#ADADAD;}
</style>
<path class="st0" d="M15,8h3v1h-3V8z M18,10.1c-1,0.1-2,0.4-2.9,0.9H15v-1L18,10.1L18,10.1z M4,4h14v2H4V4z M4,8h10v1H4V8z M4,11v-1
	h9v1H4z M4,13v-1h9.7c-0.4,0.3-0.7,0.6-1,1H4z M11.6,15H4v-1h8v0.1C11.8,14.4,11.7,14.7,11.6,15z M20,2H2v18h9.3
	c0.2,0.7,0.5,1.4,0.8,2H0V0h22v10.6c-0.6-0.3-1.3-0.4-2-0.5V2z M22,17h-2v-2h-2v2h-2v2h2v2h2v-2h2V17z M19,24c-3.3,0-6-2.7-6-6
	s2.7-6,6-6s6,2.7,6,6S22.3,24,19,24z"/>
</svg>
