<?xml version="1.0" encoding="iso-8859-1"?>
<!-- Generator: Adobe Illustrator 17.0.0, SVG Export Plug-In . SVG Version: 6.00 Build 0)  -->
<!DOCTYPE svg PUBLIC "-//W3C//DTD SVG 1.1//EN" "http://www.w3.org/Graphics/SVG/1.1/DTD/svg11.dtd">
<svg version="1.1" id="Layer_1" xmlns="http://www.w3.org/2000/svg" xmlns:xlink="http://www.w3.org/1999/xlink" x="0px" y="0px"
	 width="25px" height="24px" viewBox="0 0 25 24" style="enable-background:new 0 0 25 24;" xml:space="preserve">
<path style="fill-rule:evenodd;clip-rule:evenodd;fill:#010202;" d="M15,8h3v1h-3V8z M18,10.07c-1.03,0.13-2,0.45-2.87,0.93H15v-1h3
	V10.07z M4,4h14v2H4V4z M4,8h10v1H4V8z M4,11v-1h9v1H4z M4,13v-1h9.72c-0.35,0.31-0.67,0.64-0.96,1H4z M11.59,15H4v-1h8v0.13
	C11.84,14.41,11.71,14.7,11.59,15z M20,2H2v18h9.26c0.19,0.71,0.46,1.38,0.82,2H0V0h22v10.59c-0.63-0.26-1.3-0.43-2-0.52V2z M22,17
	h-2v-2h-2v2h-2v2h2v2h2v-2h2V17z M19,24c-3.31,0-6-2.69-6-6c0-3.31,2.69-6,6-6c3.31,0,6,2.69,6,6C25,21.31,22.31,24,19,24z"/>
</svg>
