<?xml version="1.0" encoding="utf-8"?>
<!-- Generator: Adobe Illustrator 20.0.0, SVG Export Plug-In . SVG Version: 6.00 Build 0)  -->
<svg version="1.1" id="Layer_1" xmlns="http://www.w3.org/2000/svg" xmlns:xlink="http://www.w3.org/1999/xlink" x="0px" y="0px"
	 viewBox="0 0 24 24" style="enable-background:new 0 0 24 24;" xml:space="preserve">
<style type="text/css">
	.st0{fill:#777777;}
</style>
<path class="st0" d="M15.8,8.2c-0.1-0.4-0.4-0.7-0.7-1c-0.3-0.3-0.7-0.6-1.2-0.8C13.4,6.1,12.7,6,11.9,6c-0.6,0-1.1,0.1-1.6,0.3
	C9.8,6.5,9.4,6.8,9.1,7.2C8.8,7.6,8.5,8,8.3,8.5C8.1,9,8,9.5,8,10.1h2c0-0.3,0-0.6,0.1-0.8c0.1-0.2,0.2-0.5,0.3-0.6
	c0.1-0.2,0.3-0.3,0.6-0.5C11.2,8.1,11.5,8,11.8,8c0.4,0,0.8,0.1,1.1,0.4c0.2,0.2,0.4,0.6,0.4,1.1c0,0.3-0.1,0.5-0.2,0.7
	c-0.1,0.2-0.3,0.4-0.4,0.5c-0.2,0.2-0.4,0.3-0.6,0.5c-0.2,0.2-0.4,0.4-0.6,0.6c-0.2,0.2-0.4,0.5-0.5,0.8c-0.1,0.3-0.2,0.7-0.3,1.2
	v0.7h2.2v-0.6c0-0.3,0.1-0.6,0.3-0.8c0.2-0.2,0.4-0.4,0.6-0.6l0.8-0.5c0.2-0.2,0.5-0.4,0.7-0.6c0.2-0.2,0.4-0.5,0.6-0.9
	c0.1-0.3,0.2-0.8,0.2-1.3C16,8.9,15.9,8.6,15.8,8.2z M11,18h2v-2h-2V18z M12,24C5.4,24,0,18.6,0,12S5.4,0,12,0c6.6,0,12,5.4,12,12
	S18.6,24,12,24z"/>
</svg>
