<?xml version="1.0" encoding="iso-8859-1"?>
<!-- Generator: Adobe Illustrator 17.0.0, SVG Export Plug-In . SVG Version: 6.00 Build 0)  -->
<!DOCTYPE svg PUBLIC "-//W3C//DTD SVG 1.1//EN" "http://www.w3.org/Graphics/SVG/1.1/DTD/svg11.dtd">
<svg version="1.1" id="Layer_1" xmlns="http://www.w3.org/2000/svg" xmlns:xlink="http://www.w3.org/1999/xlink" x="0px" y="0px"
	 width="22px" height="21px" viewBox="0 0 22 21" style="enable-background:new 0 0 22 21;" xml:space="preserve">
<path style="fill-rule:evenodd;clip-rule:evenodd;fill:#010202;" d="M21.8,19.41C21.89,20.1,22,20.97,22,21H0
	c0-0.03,0.1-0.83,0.19-1.53C0.07,19.43,0,19.32,0,19.08v-0.55c0,0,0-1.47,2.74-2.79c1.309-0.64,3.289-2.31,6.18-2.88
	C8.16,12,7.61,10.61,7.03,9C6.68,8.05,6.74,7.25,6.74,6.13c0-0.84-0.13-2.19,0.05-2.94C7.42,0.69,9.05,0,10.97,0
	c1.9,0,3.53,0.69,4.16,3.19c0.21,0.75,0.05,2.07,0.05,2.94c0,1.12,0.06,1.92-0.26,2.87c-0.58,1.61-1.16,2.97-1.89,3.86
	c2.92,0.55,4.86,2.21,6.21,2.88c2.73,1.32,2.76,2.79,2.76,2.79V19C22,19.28,21.92,19.39,21.8,19.41z"/>
</svg>
